<?xml version="1.0" standalone="no"?>
<!DOCTYPE svg PUBLIC "-//W3C//DTD SVG 20010904//EN"
 "http://www.w3.org/TR/2001/REC-SVG-20010904/DTD/svg10.dtd">
<svg version="1.0" xmlns="http://www.w3.org/2000/svg"
 width="320.000000pt" height="320.000000pt" viewBox="0 0 320.000000 320.000000"
 preserveAspectRatio="xMidYMid meet">
<metadata>
Created by potrace 1.14, written by Peter Selinger 2001-2017
</metadata>
<g transform="translate(0.000000,320.000000) scale(0.100000,-0.100000)"
fill="#000000" stroke="none">
<path d="M980 2296 c0 -3 47 -79 104 -168 112 -175 109 -173 179 -143 l38 15
-28 47 c-30 53 -34 52 76 1 39 -18 71 -36 71 -39 0 -4 -30 -17 -66 -30 -75
-27 -114 -58 -114 -91 0 -22 290 -491 326 -528 12 -12 14 -6 14 47 0 34 -5 74
-11 90 -27 69 -107 347 -103 357 3 7 34 25 70 40 l66 29 59 -29 c33 -15 64
-33 68 -39 4 -5 -18 -95 -50 -200 -43 -140 -58 -206 -58 -250 l-1 -60 20 25
c11 14 38 54 60 90 23 36 86 135 141 220 112 174 121 192 113 225 -6 24 -69
63 -136 85 -21 6 -38 15 -38 18 0 4 38 26 85 49 47 23 85 40 85 39 0 -2 -12
-24 -26 -50 l-26 -46 34 -14 c78 -32 66 -42 182 141 59 92 103 169 98 171 -6
2 -41 -8 -78 -21 -266 -95 -456 -161 -494 -174 l-45 -14 -245 86 c-135 47
-259 91 -275 99 -36 16 -95 30 -95 22z"/>
<path d="M547 1092 c-13 -14 -17 -38 -17 -90 0 -102 2 -103 216 -100 l169 3 3
27 3 27 -163 3 -163 3 -3 43 -3 42 165 0 166 0 0 30 0 30 -178 0 c-161 0 -181
-2 -195 -18z"/>
<path d="M969 1093 c-1 -10 -1 -49 0 -88 1 -102 6 -105 190 -105 197 0 195 -1
199 118 l3 92 -35 0 -35 0 -3 -72 -3 -73 -120 0 -120 0 -3 73 -3 72 -34 0
c-26 0 -35 -4 -36 -17z"/>
<path d="M1402 1008 l3 -103 32 -3 c29 -3 32 -1 35 30 l3 33 148 2 c99 1 152
5 162 13 20 17 20 94 -1 114 -13 13 -46 16 -200 16 l-185 0 3 -102z m333 32
c0 -12 -23 -15 -132 -18 -128 -2 -133 -2 -133 18 0 20 5 20 133 18 109 -3 132
-6 132 -18z"/>
<path d="M1842 1008 l3 -103 32 -3 c29 -3 32 -1 35 30 l3 33 102 3 101 3 27
-36 c20 -25 35 -35 56 -35 36 0 42 10 20 39 -18 23 -17 25 0 42 25 25 25 90 1
112 -16 15 -45 17 -201 17 l-182 0 3 -102z m328 32 c0 -19 -7 -20 -130 -20
-123 0 -130 1 -130 20 0 19 7 20 130 20 123 0 130 -1 130 -20z"/>
<path d="M2295 1086 c-12 -18 -15 -44 -13 -102 l3 -79 32 -3 c29 -3 32 -1 35
30 l3 33 125 0 125 0 3 -33 c3 -31 6 -33 35 -30 l32 3 3 103 3 102 -185 0
c-185 0 -186 0 -201 -24z m315 -46 c0 -19 -7 -20 -130 -20 -123 0 -130 1 -130
20 0 19 7 20 130 20 123 0 130 -1 130 -20z"/>
</g>
</svg>
